<?xml version="1.0" encoding="utf-8"?>
<!-- Generator: Adobe Illustrator 19.2.0, SVG Export Plug-In . SVG Version: 6.00 Build 0)  -->
<svg version="1.1" id="Layer_1" xmlns="http://www.w3.org/2000/svg" xmlns:xlink="http://www.w3.org/1999/xlink" x="0px" y="0px"
	 viewBox="0 0 400 200" style="enable-background:new 0 0 400 200;" xml:space="preserve">
<style type="text/css">
	.st0{fill:#FFFFFF;}
</style>
<g>
	<g>
		<path class="st0" d="M96.4,120.7v11.5H94v-29h8.8c6.7,0,10.5,3.2,10.5,8.8c0,5.5-3.9,8.7-10.5,8.7H96.4z M96.4,118.5h6.4
			c5.4,0,8.1-2.1,8.1-6.5c0-4.3-2.7-6.5-8.1-6.5h-6.4V118.5z"/>
		<path class="st0" d="M131.3,122.3h-13.9v0.9c0,4.4,2.1,7.1,6.4,7.1c2.5,0,4.3-0.8,5.5-2.6l1.8,1.3c-1.5,2.3-3.9,3.4-7.2,3.4
			c-5.6,0-8.8-3.4-8.8-9.3v-3c0-5.9,2.9-9.2,8.1-9.2c5.3,0,8.1,3.3,8.1,9.2V122.3z M117.4,120.2H129v0c0-4.6-2-7.1-5.8-7.1
			C119.4,113.1,117.4,115.6,117.4,120.2L117.4,120.2z"/>
		<path class="st0" d="M138.4,119.6v12.6h-2.3v-21h2.3v2.9c1-2.1,2.7-3.1,5.3-3.1c2.5,0,4.5,1,5.9,2.9l-1.9,1.4
			c-1.1-1.4-2.5-2.1-4.2-2.1C140.3,113.1,138.4,115.6,138.4,119.6z"/>
		<path class="st0" d="M150.1,111.2h2.7v-1.5c0-4.6,1.5-6.5,6-6.5h1v2.2h-0.9c-1.6,0-2.6,0.4-3,1.1c-0.5,0.7-0.7,1.9-0.7,3.7v0.9
			h4.6v2.1h-4.6v18.9h-2.3v-18.9h-2.7V111.2z"/>
		<path class="st0" d="M178.2,122.3h-13.9v0.9c0,4.4,2.1,7.1,6.4,7.1c2.5,0,4.3-0.8,5.5-2.6l1.8,1.3c-1.5,2.3-3.9,3.4-7.2,3.4
			c-5.6,0-8.8-3.4-8.8-9.3v-3c0-5.9,2.9-9.2,8.1-9.2c5.3,0,8.1,3.3,8.1,9.2V122.3z M164.3,120.2h11.6v0c0-4.6-2-7.1-5.8-7.1
			C166.3,113.1,164.3,115.6,164.3,120.2L164.3,120.2z"/>
		<path class="st0" d="M197.9,129c-1.4,2.3-3.8,3.4-7.1,3.4c-5.7,0-8.9-3.4-8.9-9.3v-3c0-5.9,3.3-9.2,8.9-9.2c3.2,0,5.5,1.1,7.1,3.2
			l-1.8,1.3c-1.1-1.6-2.9-2.4-5.3-2.4c-4.2,0-6.6,2.5-6.6,7.1v3c0,4.4,2.1,7.1,6.6,7.1c2.4,0,4.2-0.8,5.3-2.6L197.9,129z"/>
		<path class="st0" d="M199.3,113.3v-2.1h2.7v-4.6h2.3v4.6h5.2v2.1h-5.2v11.8c0,1.8,0.2,3.1,0.7,3.8s1.5,1,3.1,1h1.4v2.2H208
			c-4.5,0-6-1.9-6-6.5v-12.4H199.3z"/>
		<path class="st0" d="M220.2,122.4v9.8h-7v-29h10.9c6.9,0,11,3.2,11,9.4c0,6.3-4.1,9.8-11,9.8H220.2z M220.2,116.6h2.7
			c3.7,0,5.3-1.1,5.3-4c0-2.4-1.8-3.6-5.3-3.6h-2.7V116.6z"/>
		<path class="st0" d="M237.6,103.2h6.3V124c0,2.2,0.8,2.9,2.6,2.9v5.4c-3.2,0-5.4-0.5-6.8-1.4c-1.4-1-2.1-2.8-2.1-5.5V103.2z"/>
		<path class="st0" d="M260.4,119.4v-0.6c0-2.2-0.5-2.9-3.3-2.9c-1.8,0-2.7,0.4-3.4,1.4l-4.4-3.1c1.6-2.6,4-3.5,8.5-3.5
			c2.9,0,5.1,0.6,6.6,1.7c1.5,1.1,2.2,3.2,2.2,6.3v13.4h-6.1v-1.7c-0.9,1.4-2.3,2.1-4.2,2.1c-4.3,0-7.3-2.4-7.3-6.7s3.2-6.6,7.7-6.6
			H260.4z M260.4,123.8h-2.9c-1.6,0-2.5,0.6-2.5,1.9c0,1.3,0.8,1.9,2.6,1.9c1.8,0,2.8-1.1,2.8-3.2V123.8z"/>
		<path class="st0" d="M287.2,129c-1.6,2.5-3.9,3.6-7.8,3.6c-6,0-9.5-3.7-9.5-9.5v-2.9c0-6.2,3.4-9.4,9.9-9.4c3.5,0,6,1.2,7.4,3.6
			l-4.7,3.3c-0.8-1.1-1.7-1.6-2.9-1.6c-2.6,0-3.4,1.3-3.4,4.7v1.8c0,3.2,0.6,4.7,3.4,4.7c1.3,0,2.3-0.5,2.9-1.6L287.2,129z"/>
		<path class="st0" d="M305.7,129c-1.4,2.4-4,3.6-7.8,3.6c-6.3,0-9.5-3.9-9.5-9.5v-2.9c0-6.3,3.2-9.4,8.8-9.4c5.9,0,8.8,3.4,8.8,10
			v2.5h-11.3c0.1,2.7,0.8,4,3.2,4c2.1-0.2,2.3-0.4,3.2-1.6L305.7,129z M294.8,119.1h5c-0.1-2.2-0.9-3-2.5-3
			C295.8,116.1,294.9,117.1,294.8,119.1z"/>
	</g>
	<g>
		<polygon class="st0" points="217.4,90.2 198.8,75.1 180.5,90.1 176.7,85.5 198.8,67.4 221.2,85.5 		"/>
	</g>
</g>
</svg>
