<?xml version="1.0" encoding="utf-8"?>
<!-- Generator: Adobe Illustrator 19.2.0, SVG Export Plug-In . SVG Version: 6.00 Build 0)  -->
<svg version="1.1" id="Layer_1" xmlns="http://www.w3.org/2000/svg" xmlns:xlink="http://www.w3.org/1999/xlink" x="0px" y="0px"
	 viewBox="0 0 200 200" style="enable-background:new 0 0 200 200;" xml:space="preserve">
<style type="text/css">
	.st0{fill:#FFFFFF;}
</style>
<g>
	<g>
		<path class="st0" d="M44.7,98.7v11.5h-2.4v-29h8.8c6.7,0,10.5,3.2,10.5,8.8c0,5.5-3.9,8.7-10.5,8.7H44.7z M44.7,96.5h6.4
			c5.4,0,8.1-2.1,8.1-6.5c0-4.3-2.7-6.5-8.1-6.5h-6.4V96.5z"/>
		<path class="st0" d="M79.6,100.3H65.7v0.9c0,4.4,2.1,7.1,6.4,7.1c2.5,0,4.3-0.8,5.5-2.6l1.8,1.3c-1.5,2.3-3.9,3.4-7.2,3.4
			c-5.6,0-8.8-3.4-8.8-9.3v-3c0-5.9,2.9-9.2,8.1-9.2c5.3,0,8.1,3.3,8.1,9.2V100.3z M65.7,98.2h11.6v0c0-4.6-2-7.1-5.8-7.1
			C67.7,91.1,65.7,93.6,65.7,98.2L65.7,98.2z"/>
		<path class="st0" d="M86.7,97.5v12.6h-2.3v-21h2.3V92c1-2.1,2.7-3.1,5.3-3.1c2.5,0,4.5,1,5.9,2.9L96,93.3
			c-1.1-1.4-2.5-2.1-4.2-2.1C88.6,91.1,86.7,93.6,86.7,97.5z"/>
		<path class="st0" d="M98.4,89.2h2.7v-1.5c0-4.6,1.5-6.5,6-6.5h1v2.2h-0.9c-1.6,0-2.6,0.4-3,1.1c-0.5,0.7-0.7,1.9-0.7,3.7v0.9h4.6
			v2.1h-4.6v18.9H101V91.3h-2.7V89.2z"/>
		<path class="st0" d="M126.5,100.3h-13.9v0.9c0,4.4,2.1,7.1,6.4,7.1c2.5,0,4.3-0.8,5.5-2.6l1.8,1.3c-1.5,2.3-3.9,3.4-7.2,3.4
			c-5.6,0-8.8-3.4-8.8-9.3v-3c0-5.9,2.9-9.2,8.1-9.2c5.3,0,8.1,3.3,8.1,9.2V100.3z M112.6,98.2h11.6v0c0-4.6-2-7.1-5.8-7.1
			C114.6,91.1,112.6,93.6,112.6,98.2L112.6,98.2z"/>
		<path class="st0" d="M146.2,107c-1.4,2.3-3.8,3.4-7.1,3.4c-5.7,0-8.9-3.4-8.9-9.3v-3c0-5.9,3.3-9.2,8.9-9.2c3.2,0,5.5,1.1,7.1,3.2
			l-1.8,1.3c-1.1-1.6-2.9-2.4-5.3-2.4c-4.2,0-6.6,2.5-6.6,7.1v3c0,4.4,2.1,7.1,6.6,7.1c2.4,0,4.2-0.8,5.3-2.6L146.2,107z"/>
		<path class="st0" d="M147.6,91.3v-2.1h2.7v-4.6h2.3v4.6h5.2v2.1h-5.2v11.8c0,1.8,0.2,3.1,0.7,3.8c0.5,0.7,1.5,1,3.1,1h1.4v2.2
			h-1.5c-4.5,0-6-1.9-6-6.5V91.3H147.6z"/>
		<path class="st0" d="M60,142.4v9.8h-7v-29H64c6.9,0,11,3.2,11,9.4c0,6.3-4.1,9.8-11,9.8H60z M60,136.6h2.7c3.7,0,5.3-1.1,5.3-4
			c0-2.4-1.8-3.6-5.3-3.6H60V136.6z"/>
		<path class="st0" d="M77.5,123.2h6.3V144c0,2.2,0.8,2.9,2.6,2.9v5.4c-3.2,0-5.4-0.5-6.8-1.4c-1.4-1-2.1-2.8-2.1-5.5V123.2z"/>
		<path class="st0" d="M100.2,139.4v-0.6c0-2.2-0.5-2.9-3.3-2.9c-1.8,0-2.7,0.4-3.4,1.4l-4.4-3.1c1.6-2.6,4-3.5,8.5-3.5
			c2.9,0,5.1,0.6,6.6,1.7c1.5,1.1,2.2,3.2,2.2,6.3v13.4h-6.1v-1.7c-0.9,1.4-2.3,2.1-4.2,2.1c-4.3,0-7.3-2.4-7.3-6.7
			c0-4.2,3.2-6.6,7.7-6.6H100.2z M100.2,143.8h-2.9c-1.6,0-2.5,0.6-2.5,1.9c0,1.3,0.8,1.9,2.6,1.9c1.8,0,2.8-1,2.8-3.2V143.8z"/>
		<path class="st0" d="M127,149c-1.6,2.5-3.9,3.6-7.8,3.6c-6,0-9.5-3.7-9.5-9.5v-2.9c0-6.2,3.4-9.4,9.9-9.4c3.5,0,6,1.2,7.4,3.6
			l-4.7,3.3c-0.8-1-1.7-1.6-2.9-1.6c-2.6,0-3.4,1.3-3.4,4.7v1.8c0,3.2,0.6,4.7,3.4,4.7c1.3,0,2.3-0.5,2.9-1.6L127,149z"/>
		<path class="st0" d="M145.6,149c-1.4,2.4-4,3.6-7.8,3.6c-6.3,0-9.5-3.9-9.5-9.5v-2.9c0-6.3,3.2-9.4,8.8-9.4c5.9,0,8.8,3.4,8.8,10
			v2.5h-11.3c0.1,2.7,0.8,4,3.2,4c2.1-0.2,2.3-0.4,3.2-1.6L145.6,149z M134.6,139.1h5c-0.1-2.2-0.9-3-2.5-3
			C135.6,136.1,134.8,137.1,134.6,139.1z"/>
	</g>
	<g>
		<polygon class="st0" points="117.2,70.2 98.6,55.1 80.3,70.2 76.5,65.5 98.6,47.4 121,65.5 		"/>
	</g>
</g>
</svg>
